<svg xmlns="http://www.w3.org/2000/svg" version="1.1" xmlns:xlink="http://www.w3.org/1999/xlink" xmlns:svgjs="http://svgjs.dev/svgjs" width="2000" height="757" viewBox="0 0 2000 757"><g transform="matrix(1,0,0,1,-1.2121212121212466,1.2269370710574776)"><svg viewBox="0 0 396 150" data-background-color="#000000" preserveAspectRatio="xMidYMid meet" height="757" width="2000" xmlns="http://www.w3.org/2000/svg" xmlns:xlink="http://www.w3.org/1999/xlink"><g id="tight-bounds" transform="matrix(1,0,0,1,0.2400000000000091,-0.24311830998496475)"><svg viewBox="0 0 395.52 150.4862323239218" height="150.4862323239218" width="395.52"><g><svg viewBox="0 0 649.7108904258064 247.2" height="150.4862323239218" width="395.52"><g><svg viewBox="0 0 365.4838709677419 247.2" height="247.2" width="365.4838709677419"><g><svg viewBox="0 0 365.4838709677419 247.2" height="247.2" width="365.4838709677419"><g><svg viewBox="0 0 365.4838709677419 247.2" height="247.2" width="365.4838709677419"><g transform="matrix(1,0,0,1,0,0)"><svg width="365.4838709677419" viewBox="1.2599999904632568 -31.610000610351562 47.42000198364258 32.06999969482422" height="247.2" data-palette-color="#ff4057"><path d="M9.77-2.64L9.77-2.64Q15.52-2.64 15.63-10L15.63-10 15.63-29.54Q15.63-30.92 16.78-31.21L16.78-31.21Q17.13-31.26 17.47-31.38L17.47-31.38Q18.79-31.38 19.31-30.34L19.31-30.34Q19.48-30 19.48-29.54L19.48-29.54 19.48-9.66Q19.48-4.6 16.44-1.9L16.44-1.9Q13.97 0.46 9.77 0.46L9.77 0.46Q5.4 0.46 2.76-2.76L2.76-2.76Q1.9-3.91 1.58-4.83 1.26-5.75 1.26-6.32 1.26-6.9 1.75-7.33 2.24-7.76 2.76-7.76L2.76-7.76Q3.79-7.76 4.31-6.9L4.31-6.9Q5.75-2.64 9.77-2.64ZM30.28-23.45L30.28-23.45Q30.28-22.24 31.09-21.18 31.89-20.11 33.16-19.43 34.42-18.74 36.03-18.22 37.64-17.7 39.42-17.13 41.2-16.55 42.93-15.86 44.65-15.17 45.92-14.14L45.92-14.14Q48.68-11.9 48.68-8.05L48.68-8.05Q48.68-6.21 47.81-4.57 46.95-2.93 45.4-1.84L45.4-1.84Q42.24 0.46 36.95 0.46L36.95 0.46Q31.95 0.46 28.16-2.07L28.16-2.07Q25.8-3.56 25.8-4.6L25.8-4.6Q25.8-5.52 26.72-6.09L26.72-6.09Q26.95-6.32 27.3-6.32 27.64-6.32 28.04-6.03 28.45-5.75 28.99-5.34 29.54-4.94 30.37-4.45 31.2-3.97 32.12-3.56L32.12-3.56Q34.42-2.64 36.61-2.7 38.79-2.76 40.11-3.05 41.43-3.33 42.47-4.02L42.47-4.02Q44.65-5.52 44.71-7.82L44.71-7.82Q44.71-10.69 41.89-12.24L41.89-12.24Q40.63-12.93 39.05-13.48 37.47-14.02 35.72-14.54 33.96-15.06 32.24-15.8 30.51-16.55 29.19-17.59L29.19-17.59Q26.38-19.83 26.38-23.33L26.38-23.33Q26.38-25.17 27.27-26.78 28.16-28.39 29.71-29.43L29.71-29.43Q32.7-31.55 37.18-31.61L37.18-31.61Q43.68-31.61 47.64-27.41L47.64-27.41Q47.87-27.07 47.87-26.64 47.87-26.21 47.84-25.92 47.81-25.63 47.53-25.34L47.53-25.34Q47.12-24.83 46.46-24.83 45.8-24.83 45.05-25.69L45.05-25.69Q43.16-27.07 42.01-27.47L42.01-27.47Q39.71-28.39 37.53-28.39L37.53-28.39Q34.71-28.39 32.7-27.24L32.7-27.24Q30.28-25.86 30.28-23.45Z" opacity="1" transform="matrix(1,0,0,1,0,0)" fill="#ffffff" class="undefined-text-0" data-fill-palette-color="primary" id="text-0"></path></svg></g></svg></g></svg></g></svg></g><g transform="matrix(1,0,0,1,423.84185816774186,10.665483870967748)"><svg viewBox="0 0 225.8690322580645 225.8690322580645" height="225.8690322580645" width="225.8690322580645"><g data-palette-color="#dcdcdc"><rect width="61.737535483870964" height="225.8690322580645" fill="#ffffff" stroke="transparent" data-fill-palette-color="accent" x="0" fill-opacity="1"></rect><rect width="61.737535483870964" height="225.8690322580645" fill="#ffffff" stroke="transparent" data-fill-palette-color="accent" x="75.28967741935483" fill-opacity="0.75"></rect><rect width="61.737535483870964" height="225.8690322580645" fill="#ffffff" stroke="transparent" data-fill-palette-color="accent" x="150.57935483870966" fill-opacity="0.5"></rect></g></svg></g></svg></g><defs></defs></svg><rect width="395.52" height="150.4862323239218" fill="none" stroke="none" visibility="hidden"></rect></g></svg></g></svg>